<?xml version="1.0" encoding="UTF-8"?><svg id="Layer_2" xmlns="http://www.w3.org/2000/svg" xmlns:xlink="http://www.w3.org/1999/xlink" viewBox="0 0 236.26 115.26"><defs><style>.cls-1{fill:none;}.cls-2{fill:url(#linear-gradient-2);}.cls-3{fill:url(#linear-gradient);}.cls-4{fill:#29abe2;}</style><linearGradient id="linear-gradient" x1="148.81" y1="8.35" x2="227.82" y2="90.17" gradientUnits="userSpaceOnUse"><stop offset=".21" stop-color="#f15a24"/><stop offset=".68" stop-color="#fbb03b"/></linearGradient><linearGradient id="linear-gradient-2" x1="-1244.74" y1="-1414.65" x2="-1165.72" y2="-1332.83" gradientTransform="translate(-1157.28 -1307.74) rotate(-180)" gradientUnits="userSpaceOnUse"><stop offset=".21" stop-color="#ed1e79"/><stop offset=".89" stop-color="#522785"/></linearGradient></defs><g id="Layer_1-2"><path class="cls-1" d="M213.29,57.63c0-19.11-15.44-34.65-34.41-34.65-5.03,0-13.86,2.57-27.39,14.82-7.27,6.59-13.6,13.93-17.99,19.3,7.38,8.07,15.37,16.62,19,19.87,1.49,1.33,11.33,9.67,23.01,14.89,1.37.32,2.48.42,3.35.42,18.99-.12,34.43-15.66,34.43-34.65Z"/><path class="cls-1" d="M152.13,77.35c11.17,10,18.75,13.45,23.37,14.51,1.37.32,2.48.42,3.35.42,18.99-.12,34.43-15.66,34.43-34.65s-15.44-34.65-34.41-34.65c-5.03,0-13.86,2.57-27.39,14.82-7.27,6.59-13.6,13.93-17.99,19.3-.11.13-.22.26-.32.39,4.59,5.44,11.32,13.04,18.95,19.86Z"/><path class="cls-3" d="M178.88,0c-13.19,0-27.6,6.99-42.81,20.76-7.21,6.53-13.45,13.51-18.14,19.11,0,0,.02.02.02.03.01-.01.02-.02.02-.02,0,0,7.4,8.32,15.53,17.22,4.38-5.38,10.71-12.72,17.99-19.3,13.53-12.25,22.36-14.82,27.39-14.82,18.97,0,34.41,15.55,34.41,34.65s-15.44,34.54-34.43,34.65c-.86,0-1.98-.11-3.35-.42,5.53,2.48,11.48,4.25,17.14,4.25,34.78,0,41.57-23.45,42.04-25.11,1.03-4.3,1.58-8.77,1.58-13.37,0-31.78-25.74-57.63-57.38-57.63Z"/><path class="cls-4" d="M192.59,95.53c-17.81-.45-36.31-14.96-40.09-18.57-9.75-9.32-19-19.87-19-19.87-8.14-8.9-15.53-17.22-15.53-17.22,0,0,0,.01-.02.02,0,0-.02-.02-.02-.03-2.63,3.14-15.43,17.75-15.43,17.75,0,0,8.56,9.16,9.28,10.04,16.81,20.43,42.05,47.59,67.11,47.59h.06c27.01-.14,49.71-19.04,55.75-44.25-.46,1.66-9.42,25.36-42.1,24.53Z"/><path class="cls-1" d="M22.97,57.63c0,19.11,15.44,34.65,34.41,34.65,5.03,0,13.86-2.57,27.39-14.82,7.27-6.59,13.6-13.93,17.99-19.3-7.38-8.07-15.37-16.62-19-19.87-1.49-1.33-11.33-9.67-23.01-14.89-1.37-.32-2.48-.42-3.35-.42-18.99.12-34.43,15.66-34.43,34.65Z"/><path class="cls-1" d="M84.13,37.91c-11.17-10-18.75-13.45-23.37-14.51-1.37-.32-2.48-.42-3.35-.42-18.99.12-34.43,15.66-34.43,34.65s15.44,34.65,34.41,34.65c5.03,0,13.86-2.57,27.39-14.82,7.27-6.59,13.6-13.93,17.99-19.3.11-.13.22-.26.32-.39-4.59-5.44-11.32-13.04-18.95-19.86Z"/><path class="cls-2" d="M57.38,115.26c13.19,0,27.6-6.99,42.81-20.76,7.21-6.53,13.45-13.51,18.14-19.11,0,0-.02-.02-.02-.03-.01.01-.02.02-.02.02,0,0-7.4-8.32-15.53-17.22-4.38,5.38-10.71,12.72-17.99,19.3-13.53,12.25-22.36,14.82-27.39,14.82-18.97,0-34.41-15.55-34.41-34.65s15.44-34.54,34.43-34.65c.86,0,1.98.11,3.35.42-5.53-2.48-11.48-4.25-17.14-4.25C8.83,19.15,2.04,42.59,1.58,44.25c-1.03,4.3-1.58,8.77-1.58,13.37,0,31.78,25.74,57.63,57.38,57.63Z"/><path class="cls-4" d="M43.59,19.53c17.81.45,36.4,15.15,40.18,18.76,9.75,9.32,19,19.87,19,19.87,8.14,8.9,15.53,17.22,15.53,17.22,0,0,0-.01.02-.02,0,0,.02.02.02.03,2.63-3.14,15.43-17.75,15.43-17.75,0,0-8.56-9.16-9.28-10.04C107.69,27.16,82.44,0,57.38,0h-.06C30.32.14,7.61,19.04,1.58,44.25c.46-1.66,9.34-25.55,42.01-24.72Z"/></g></svg>
